<svg width="241" height="90" viewBox="0 0 241 90" fill="none" xmlns="http://www.w3.org/2000/svg">
<path d="M119.436 89.291C118.038 89.291 116.673 88.9417 115.339 88.2431C114.006 87.5446 113.053 86.4014 112.482 84.8137C112.418 84.6232 112.482 84.4645 112.672 84.3374C112.863 84.2739 113.021 84.401 113.148 84.7185C113.783 85.9251 114.577 86.8142 115.53 87.3858C116.546 87.9574 117.594 88.2431 118.673 88.2431C118.927 88.2431 119.182 88.2114 119.436 88.1479C119.753 88.1479 120.039 88.1161 120.293 88.0526C122.452 87.5446 124.135 86.2744 125.342 84.2422C126.612 82.21 127.501 79.8284 128.009 77.0976C128.581 74.3668 128.93 71.6043 129.057 68.81C129.184 66.0791 129.216 63.7294 129.152 61.7607C127.374 62.7768 125.532 63.6659 123.627 64.428C121.785 65.19 119.848 65.8251 117.816 66.3332C116.864 66.5872 115.752 66.8095 114.482 67C113.275 67.127 111.973 67.1905 110.576 67.1905C108.1 67.1905 105.655 66.746 103.241 65.8569C100.891 64.9043 99.272 63.1261 98.3829 60.5223C98.1289 59.8872 97.9701 59.2521 97.9066 58.6171C97.8431 57.9185 97.8114 57.2517 97.8114 56.6166C97.8114 54.7749 98.0654 52.9967 98.5735 51.282C99.145 49.5038 99.7483 47.9161 100.383 46.519C98.9228 45.6299 97.6209 44.5502 96.4777 43.2801C95.3981 42.0099 94.5725 40.5493 94.0009 38.8981C93.7469 38.136 93.5564 37.3739 93.4294 36.6118C93.3024 35.8498 93.2389 35.1194 93.2389 34.4208C93.2389 31.563 94.0327 28.9592 95.6204 26.6095C97.2081 24.1962 99.1768 22.164 101.527 20.5128C103.876 18.8616 106.194 17.782 108.481 17.2739C108.735 17.2104 109.306 17.1152 110.195 16.9881C111.148 16.8611 112.037 16.7976 112.863 16.7976C113.879 16.7976 114.418 16.9246 114.482 17.1787C114.609 17.4327 114.514 17.5597 114.196 17.5597C113.307 17.5597 112.45 17.5597 111.624 17.5597C110.799 17.5597 109.941 17.655 109.052 17.8455C106.893 18.3535 104.765 19.3697 102.67 20.8938C100.637 22.3545 98.9228 24.1644 97.5256 26.3237C96.1919 28.4829 95.5251 30.8644 95.5251 33.4682C95.5251 34.1668 95.5886 34.8971 95.7156 35.6592C95.8427 36.3578 96.0332 37.0881 96.2872 37.8502C97.2398 40.5175 98.9545 42.7085 101.431 44.4232C103.527 40.4223 105.845 36.9294 108.385 33.9445C110.926 30.8962 113.593 28.0066 116.387 25.2758C119.182 22.4815 122.008 19.5284 124.865 16.4166C124.865 15.845 124.834 15.2417 124.77 14.6066C124.77 13.9716 124.77 13.3365 124.77 12.7014C124.77 11.1772 124.834 9.65307 124.961 8.1289C125.151 6.54122 125.5 5.17582 126.009 4.03269C126.39 3.2071 126.866 2.3815 127.437 1.55591C128.073 0.666809 128.866 0.222259 129.819 0.222259C130.454 0.222259 130.994 0.444535 131.438 0.889087C131.883 1.27013 132.232 1.77818 132.486 2.41326C132.74 2.98482 132.867 3.6834 132.867 4.50899C132.867 5.90615 132.486 7.3033 131.724 8.70046C131.026 10.0976 130.2 11.3995 129.247 12.6061C128.295 13.7493 127.437 14.7654 126.675 15.6545C126.675 18.2583 126.866 20.9256 127.247 23.6564C127.691 26.3237 128.104 28.9592 128.485 31.563C129.946 29.7213 131.661 28.0066 133.629 26.4189C135.662 24.7678 137.853 23.6564 140.202 23.0848C140.964 22.8943 141.79 22.799 142.679 22.799C143.949 22.799 145.156 23.1166 146.299 23.7516C147.506 24.3232 148.395 25.4346 148.966 27.0858C149.347 28.2289 149.538 29.499 149.538 30.8962C149.538 32.5474 149.316 34.2621 148.871 36.0403C148.427 37.755 147.982 39.2474 147.537 40.5175C146.077 44.455 144.076 48.0114 141.536 51.1867C138.996 54.2986 136.043 56.9659 132.677 59.1886C132.74 60.2047 132.804 61.2526 132.867 62.3322C132.931 63.4118 132.963 64.4915 132.963 65.5711C132.963 68.8735 132.645 72.1758 132.01 75.4782C131.438 78.8441 130.359 81.7337 128.771 84.1469C127.183 86.6237 124.834 88.2431 121.722 89.0052C121.087 89.1957 120.325 89.291 119.436 89.291ZM126.675 14.3208C127.12 13.8128 127.691 12.9554 128.39 11.7488C129.152 10.4787 129.819 9.14501 130.391 7.74785C130.962 6.3507 131.248 5.20757 131.248 4.31847C131.248 3.93743 131.216 3.6834 131.153 3.55639C131.089 3.36586 130.994 3.17534 130.867 2.98482C130.74 2.7943 130.549 2.69904 130.295 2.69904C129.914 2.69904 129.501 2.98482 129.057 3.55639C128.676 4.06444 128.422 4.50899 128.295 4.89003C127.723 6.09667 127.31 7.65259 127.056 9.5578C126.866 11.3995 126.739 12.9872 126.675 14.3208ZM107.909 46.519C110.005 46.519 112.005 46.0426 113.91 45.09C115.879 44.0739 117.689 42.8355 119.34 41.3749C120.991 39.9142 122.42 38.5171 123.627 37.1834C124.897 35.7862 125.85 34.7066 126.485 33.9445C126.167 31.2137 125.85 28.5147 125.532 25.8474C125.278 23.1166 125.056 20.3858 124.865 17.655C123.341 19.3062 121.785 20.9256 120.198 22.5133C118.61 24.1009 117.086 25.7521 115.625 27.4668C113.974 29.372 112.418 31.4043 110.957 33.5635C109.56 35.6592 108.258 37.8502 107.052 40.1365C106.544 41.0256 106.067 41.9464 105.623 42.899C105.178 43.8517 104.734 44.836 104.289 45.8521C105.432 46.2967 106.639 46.519 107.909 46.519ZM132.391 57.7597C135.376 55.8545 137.98 53.6318 140.202 51.0915C142.489 48.4877 144.267 45.4393 145.537 41.9464C146.109 40.3588 146.521 38.9299 146.775 37.6597C147.029 36.3261 147.156 35.1194 147.156 34.0398C147.156 31.4995 146.553 29.5943 145.346 28.3242C144.14 27.054 142.584 26.4189 140.679 26.4189C138.964 26.4189 137.059 26.9588 134.963 28.0384C132.867 29.0545 130.772 30.6104 128.676 32.7062C129.311 36.8976 130.009 41.0891 130.772 45.2806C131.597 49.472 132.137 53.6318 132.391 57.7597ZM114.101 64.428C115.181 64.428 116.228 64.3645 117.245 64.2374C118.324 64.0469 119.277 63.8564 120.102 63.6659C123.278 62.9038 126.231 61.7607 128.962 60.2365C128.898 56.045 128.612 51.8536 128.104 47.6621C127.66 43.4071 127.183 39.1521 126.675 34.8971C125.977 36.1038 124.992 37.5009 123.722 39.0886C122.452 40.6128 120.96 42.1052 119.245 43.5659C117.53 44.963 115.657 46.1379 113.625 47.0905C111.656 48.0431 109.592 48.5194 107.433 48.5194C106.163 48.5194 104.892 48.3289 103.622 47.9479C103.368 48.837 103.114 49.8213 102.86 50.9009C102.67 51.9806 102.574 53.0602 102.574 54.1398C102.574 55.4735 102.765 56.8071 103.146 58.1408C104.035 60.554 105.527 62.2052 107.623 63.0943C109.782 63.9834 111.942 64.428 114.101 64.428Z" fill="#FFA55C"/>
<path d="M19.24 50.128C19.24 48.144 19.112 46.496 18.856 45.184C18.632 43.872 18.312 43.216 17.896 43.216C17.64 43.216 17.4 43.408 17.176 43.792C16.952 44.144 16.76 44.656 16.6 45.328C16.472 45.968 16.36 46.736 16.264 47.632C16.2 48.496 16.168 49.44 16.168 50.464C16.168 52.288 16.296 54.256 16.552 56.368C16.808 58.448 17.256 60.464 17.896 62.416C18.344 60.368 18.68 58.272 18.904 56.128C19.128 53.952 19.24 51.952 19.24 50.128ZM39.352 28.336C39.352 28.496 39.288 28.624 39.16 28.72C39.032 28.816 38.872 28.928 38.68 29.056C37.72 29.632 36.936 30.432 36.328 31.456C35.72 32.48 35.224 33.6 34.84 34.816C34.488 36.032 34.248 37.28 34.12 38.56C33.992 39.808 33.928 40.96 33.928 42.016C33.928 42.752 33.96 43.664 34.024 44.752C34.12 45.808 34.216 46.976 34.312 48.256C34.44 49.536 34.536 50.896 34.6 52.336C34.696 53.744 34.744 55.184 34.744 56.656C34.744 58.736 34.616 60.752 34.36 62.704C34.136 64.656 33.672 66.4 32.968 67.936C32.296 69.472 31.352 70.704 30.136 71.632C28.92 72.56 27.336 73.024 25.384 73.024C24.488 73.024 23.64 72.848 22.84 72.496C22.072 72.176 21.352 71.712 20.68 71.104C20.04 70.496 19.448 69.792 18.904 68.992C18.392 68.192 17.928 67.312 17.512 66.352C17.096 67.472 16.6 68.512 16.024 69.472C15.48 70.432 14.872 71.264 14.2 71.968C13.528 72.672 12.792 73.216 11.992 73.6C11.192 73.984 10.344 74.176 9.448 74.176C8.072 74.176 6.904 73.824 5.944 73.12C5.016 72.416 4.248 71.488 3.64 70.336C3.032 69.216 2.552 67.936 2.2 66.496C1.88 65.024 1.64 63.536 1.48 62.032C1.32 60.496 1.208 59.008 1.144 57.568C1.112 56.096 1.08 54.8 1.048 53.68C0.984 51.664 1.016 49.76 1.144 47.968C1.304 46.144 1.48 44.512 1.672 43.072C1.864 41.6 2.056 40.336 2.248 39.28C2.44 38.224 2.568 37.44 2.632 36.928C2.664 36.736 2.856 36.608 3.208 36.544C3.592 36.48 3.928 36.448 4.216 36.448C4.44 36.448 4.632 36.48 4.792 36.544C4.952 36.576 5.032 36.672 5.032 36.832C5.032 37.024 4.952 37.36 4.792 37.84C4.632 38.288 4.392 39.152 4.072 40.432C3.944 41.008 3.8 41.84 3.64 42.928C3.512 43.984 3.384 45.184 3.256 46.528C3.16 47.872 3.08 49.312 3.016 50.848C2.952 52.352 2.92 53.824 2.92 55.264C2.92 56.384 2.968 57.616 3.064 58.96C3.16 60.272 3.32 61.584 3.544 62.896C3.768 64.176 4.072 65.424 4.456 66.64C4.84 67.856 5.304 68.928 5.848 69.856C6.424 70.784 7.096 71.52 7.864 72.064C8.632 72.64 9.528 72.928 10.552 72.928C11.32 72.928 12.024 72.736 12.664 72.352C13.304 71.968 13.896 71.424 14.44 70.72C14.984 70.048 15.464 69.248 15.88 68.32C16.328 67.392 16.728 66.384 17.08 65.296C16.344 63.28 15.8 61.136 15.448 58.864C15.096 56.592 14.92 54.496 14.92 52.576C14.92 51.168 14.968 49.776 15.064 48.4C15.192 47.024 15.368 45.792 15.592 44.704C15.816 43.616 16.104 42.736 16.456 42.064C16.808 41.392 17.224 41.056 17.704 41.056C18.088 41.056 18.424 41.296 18.712 41.776C19.032 42.256 19.288 42.912 19.48 43.744C19.704 44.576 19.864 45.568 19.96 46.72C20.088 47.84 20.152 49.056 20.152 50.368C20.152 52.48 20.008 54.704 19.72 57.04C19.432 59.344 18.984 61.6 18.376 63.808C18.792 64.928 19.272 65.968 19.816 66.928C20.36 67.856 20.968 68.672 21.64 69.376C22.344 70.08 23.112 70.624 23.944 71.008C24.808 71.424 25.752 71.632 26.776 71.632C28.184 71.632 29.336 71.28 30.232 70.576C31.128 69.904 31.832 68.976 32.344 67.792C32.856 66.576 33.208 65.184 33.4 63.616C33.592 62.016 33.688 60.304 33.688 58.48C33.688 56.848 33.624 55.168 33.496 53.44C33.4 51.712 33.288 50 33.16 48.304C33.032 46.576 32.904 44.912 32.776 43.312C32.68 41.68 32.632 40.176 32.632 38.8C32.632 37.808 32.776 36.656 33.064 35.344C33.384 34.032 33.8 32.8 34.312 31.648C34.856 30.464 35.464 29.472 36.136 28.672C36.84 27.84 37.576 27.424 38.344 27.424C38.568 27.424 38.792 27.536 39.016 27.76C39.24 27.952 39.352 28.144 39.352 28.336ZM54.3396 60.208C54.3396 59.728 54.2596 59.344 54.0996 59.056C53.9396 58.736 53.6836 58.576 53.3316 58.576C52.7876 58.576 52.3716 58.848 52.0836 59.392C51.7956 59.904 51.6676 60.56 51.6996 61.36C51.7956 63.056 52.0996 64.48 52.6116 65.632C53.1556 64.896 53.5716 64.064 53.8596 63.136C54.1796 62.208 54.3396 61.232 54.3396 60.208ZM67.2996 60.16C67.0756 60.64 66.8356 61.136 66.5796 61.648C66.3236 62.128 66.0356 62.608 65.7156 63.088C64.0836 65.52 62.4356 67.328 60.7716 68.512C59.1076 69.696 57.5556 70.288 56.1156 70.288C54.2916 70.288 52.8996 69.424 51.9396 67.696C50.8196 68.816 49.5556 69.664 48.1476 70.24C46.7716 70.816 45.4116 71.104 44.0676 71.104C43.2676 71.104 42.4996 70.992 41.7636 70.768C41.0596 70.544 40.4516 70.208 39.9396 69.76C39.3956 69.28 38.9636 68.688 38.6436 67.984C38.3236 67.248 38.1636 66.4 38.1636 65.44C38.1636 64.288 38.4356 63.12 38.9796 61.936C39.4916 60.72 40.2116 59.632 41.1396 58.672C42.0996 57.68 43.2196 56.864 44.4996 56.224C45.7796 55.584 47.1716 55.264 48.6756 55.264C49.8916 55.264 50.8356 55.44 51.5076 55.792C52.1796 56.112 52.5156 56.416 52.5156 56.704C52.5156 56.832 52.4516 56.928 52.3236 56.992C52.1956 57.056 52.0836 57.088 51.9876 57.088C51.9556 57.056 51.9236 57.04 51.8916 57.04H51.8436C51.4596 56.688 51.0276 56.416 50.5476 56.224C50.0676 56 49.3636 55.888 48.4356 55.888C47.1876 55.888 46.0516 56.16 45.0276 56.704C44.0356 57.216 43.1876 57.904 42.4836 58.768C41.7796 59.6 41.2356 60.528 40.8516 61.552C40.4676 62.576 40.2756 63.584 40.2756 64.576C40.2756 66.496 40.7236 67.888 41.6196 68.752C42.5156 69.616 43.6356 70.048 44.9796 70.048C46.0676 70.048 47.2036 69.776 48.3876 69.232C49.5716 68.688 50.6276 67.92 51.5556 66.928C51.0436 65.776 50.7876 64.272 50.7876 62.416C50.7876 61.2 51.0116 60.144 51.4596 59.248C51.9076 58.352 52.5476 57.904 53.3796 57.904C54.5316 57.904 55.1076 58.576 55.1076 59.92C55.1076 61.264 54.9156 62.48 54.5316 63.568C54.1476 64.624 53.6356 65.584 52.9956 66.448C53.8916 68.112 55.1396 68.944 56.7396 68.944C57.9556 68.944 59.2516 68.432 60.6276 67.408C62.0356 66.384 63.4116 64.896 64.7556 62.944C65.0756 62.464 65.3636 61.968 65.6196 61.456C65.8756 60.944 66.1316 60.432 66.3876 59.92L67.2996 60.16ZM73.9668 38.704C73.9668 36.88 73.6628 35.424 73.0547 34.336C72.4788 33.216 71.5028 32.656 70.1268 32.656C69.6468 32.656 69.1988 32.816 68.7828 33.136C68.3988 33.424 68.0628 33.824 67.7748 34.336C67.4868 34.848 67.2628 35.44 67.1028 36.112C66.9428 36.784 66.8628 37.504 66.8628 38.272C66.8628 40.384 66.8788 42.304 66.9108 44.032C66.9428 45.76 66.9748 47.392 67.0068 48.928C67.0708 50.464 67.1348 51.952 67.1988 53.392C67.2628 54.832 67.3268 56.304 67.3908 57.808C68.3188 56.56 69.1828 55.136 69.9828 53.536C70.7828 51.904 71.4708 50.24 72.0468 48.544C72.6548 46.816 73.1188 45.104 73.4388 43.408C73.7908 41.712 73.9668 40.144 73.9668 38.704ZM91.3428 60.16C91.1188 60.64 90.8788 61.136 90.6228 61.648C90.3988 62.16 90.1108 62.64 89.7588 63.088C87.9988 65.584 85.9988 67.552 83.7588 68.992C81.5188 70.4 79.2948 71.104 77.0868 71.104C75.7108 71.104 74.3988 70.784 73.1508 70.144C71.9028 69.536 70.7988 68.544 69.8388 67.168C69.7108 67.008 69.6468 66.864 69.6468 66.736C69.6468 66.448 69.8388 66.304 70.2228 66.304C70.2548 66.304 70.3668 66.336 70.5588 66.4C70.8148 66.4 71.1028 66.496 71.4228 66.688C71.7748 66.848 72.2708 66.928 72.9108 66.928C73.9028 66.928 74.8308 66.752 75.6948 66.4C76.5588 66.048 77.2948 65.6 77.9028 65.056C78.5428 64.48 79.0388 63.84 79.3907 63.136C79.7428 62.4 79.9188 61.648 79.9188 60.88C79.9188 59.92 79.6628 59.088 79.1508 58.384C78.6708 57.68 77.8388 57.328 76.6548 57.328C75.4388 57.328 74.3188 57.76 73.2948 58.624C72.2708 59.456 71.3428 60.48 70.5108 61.696C69.7108 62.88 69.0228 64.144 68.4468 65.488C67.8708 66.8 67.4388 67.952 67.1508 68.944C66.9908 69.488 66.8468 69.824 66.7188 69.952C66.5907 70.08 66.4467 70.144 66.2867 70.144C65.9347 70.144 65.7747 69.808 65.8067 69.136C65.8067 68.848 65.8227 68.496 65.8547 68.08C65.8867 67.664 65.9187 67.216 65.9507 66.736C65.9507 66.256 65.9667 65.776 65.9987 65.296C66.0307 64.784 66.0467 64.32 66.0467 63.904C66.0467 62.464 66.0147 60.816 65.9507 58.96C65.8867 57.072 65.8067 55.136 65.7107 53.152C65.6147 51.136 65.5347 49.136 65.4707 47.152C65.4067 45.168 65.3747 43.344 65.3747 41.68C65.3747 40.368 65.4707 39.104 65.6627 37.888C65.8547 36.64 66.1587 35.552 66.5747 34.624C66.9908 33.664 67.5188 32.912 68.1588 32.368C68.7988 31.792 69.5508 31.504 70.4148 31.504C71.3108 31.504 72.0628 31.664 72.6708 31.984C73.3108 32.272 73.8228 32.704 74.2068 33.28C74.5908 33.824 74.8628 34.496 75.0228 35.296C75.2148 36.064 75.3108 36.912 75.3108 37.84C75.3108 39.44 75.0868 41.2 74.6388 43.12C74.1908 45.008 73.5988 46.912 72.8628 48.832C72.1268 50.752 71.2788 52.608 70.3188 54.4C69.3908 56.16 68.4308 57.696 67.4388 59.008C67.5028 59.968 67.5348 60.96 67.5348 61.984C67.5668 63.008 67.6148 64.096 67.6788 65.248C68.4788 63.52 69.3588 62.032 70.3188 60.784C70.7348 60.24 71.1988 59.712 71.7108 59.2C72.2548 58.656 72.8148 58.176 73.3908 57.76C73.9988 57.344 74.6388 57.008 75.3108 56.752C76.0148 56.496 76.7508 56.368 77.5188 56.368C78.7348 56.368 79.7908 56.672 80.6868 57.28C81.5828 57.888 82.0308 58.864 82.0308 60.208C82.0308 61.488 81.7108 62.576 81.0708 63.472C80.4628 64.368 79.6948 65.12 78.7668 65.728C77.8388 66.304 76.8468 66.736 75.7908 67.024C74.7348 67.312 73.7748 67.488 72.9108 67.552C72.8468 67.552 72.8148 67.568 72.8148 67.6C72.8148 67.664 72.8628 67.76 72.9588 67.888C73.5988 68.624 74.3188 69.152 75.1188 69.472C75.9188 69.792 76.7508 69.952 77.6148 69.952C78.6708 69.952 79.7428 69.76 80.8307 69.376C81.9188 68.96 82.9588 68.432 83.9508 67.792C84.9428 67.12 85.8548 66.368 86.6868 65.536C87.5508 64.672 88.2548 63.808 88.7988 62.944C89.1188 62.464 89.4068 61.968 89.6628 61.456C89.9188 60.944 90.1748 60.432 90.4308 59.92L91.3428 60.16ZM98.1096 57.184C98.1096 56.32 97.8856 55.616 97.4376 55.072C97.0216 54.496 96.3336 54.208 95.3736 54.208C94.8616 54.208 94.3976 54.368 93.9816 54.688C93.5656 55.008 93.2136 55.44 92.9256 55.984C92.6376 56.496 92.4136 57.104 92.2536 57.808C92.0936 58.512 92.0136 59.248 92.0136 60.016C92.0136 61.232 92.1416 62.32 92.3976 63.28C92.6856 64.208 93.0856 65.024 93.5976 65.728C94.2696 65.184 94.8776 64.56 95.4216 63.856C95.9656 63.152 96.4296 62.416 96.8136 61.648C97.2296 60.88 97.5496 60.112 97.7736 59.344C97.9976 58.576 98.1096 57.856 98.1096 57.184ZM110.254 60.16C110.03 60.64 109.79 61.136 109.534 61.648C109.31 62.128 109.022 62.608 108.67 63.088C107.102 65.328 105.31 67.024 103.294 68.176C101.31 69.296 99.4056 69.856 97.5816 69.856C96.5576 69.856 95.5976 69.68 94.7016 69.328C93.8376 68.976 93.0856 68.448 92.4456 67.744C91.8056 67.04 91.2936 66.16 90.9096 65.104C90.5256 64.048 90.3336 62.8 90.3336 61.36C90.3336 60.4 90.4776 59.44 90.7656 58.48C91.0536 57.52 91.4376 56.656 91.9176 55.888C92.4296 55.12 93.0056 54.496 93.6456 54.016C94.3176 53.536 95.0216 53.296 95.7576 53.296C96.9416 53.296 97.8056 53.648 98.3496 54.352C98.8936 55.024 99.1656 55.888 99.1656 56.944C99.1656 58.384 98.7176 59.952 97.8216 61.648C96.9576 63.312 95.7096 64.864 94.0776 66.304C95.2936 67.68 96.8616 68.368 98.7816 68.368C100.222 68.368 101.726 67.936 103.294 67.072C104.862 66.176 106.334 64.8 107.71 62.944C108.062 62.496 108.35 62.016 108.574 61.504C108.83 60.96 109.086 60.432 109.342 59.92L110.254 60.16ZM151.839 48.064C150.655 48.064 149.519 48.192 148.431 48.448C147.375 48.704 146.431 49.008 145.599 49.36C144.799 49.712 144.143 50.08 143.631 50.464C143.151 50.848 142.911 51.184 142.911 51.472C142.911 51.856 143.359 52.048 144.255 52.048C145.791 52.048 147.247 51.68 148.623 50.944C150.031 50.208 151.295 49.248 152.415 48.064H151.839ZM165.807 55.264C165.807 56.832 165.359 58.528 164.463 60.352C163.599 62.176 162.399 63.984 160.863 65.776C159.327 67.568 157.503 69.296 155.391 70.96C153.279 72.624 151.007 74.096 148.575 75.376C146.143 76.656 143.583 77.664 140.895 78.4C138.207 79.168 135.519 79.552 132.831 79.552C132.383 79.552 131.887 79.536 131.343 79.504C130.831 79.472 130.351 79.392 129.903 79.264C129.455 79.168 129.071 78.992 128.751 78.736C128.431 78.512 128.271 78.192 128.271 77.776C128.271 77.2 128.559 76.64 129.135 76.096C129.711 75.584 130.447 75.104 131.343 74.656C132.239 74.208 133.215 73.808 134.271 73.456C135.327 73.104 136.335 72.8 137.295 72.544C138.287 72.288 139.151 72.08 139.887 71.92C140.623 71.792 141.119 71.728 141.375 71.728C141.567 71.728 141.711 71.776 141.807 71.872C141.903 71.968 141.951 72.064 141.951 72.16C141.951 72.32 141.871 72.4 141.711 72.4H141.087C140.255 72.4 139.199 72.56 137.919 72.88C136.639 73.2 135.391 73.6 134.175 74.08C132.959 74.56 131.919 75.088 131.055 75.664C130.191 76.272 129.759 76.832 129.759 77.344C129.759 77.696 129.871 77.968 130.095 78.16C130.351 78.384 130.655 78.56 131.007 78.688C131.359 78.816 131.727 78.896 132.111 78.928C132.495 78.992 132.831 79.024 133.119 79.024C135.391 79.024 137.711 78.64 140.079 77.872C142.479 77.104 144.799 76.08 147.039 74.8C149.311 73.552 151.439 72.096 153.423 70.432C155.439 68.8 157.199 67.104 158.703 65.344C160.207 63.552 161.391 61.776 162.255 60.016C163.119 58.224 163.551 56.56 163.551 55.024C163.551 53.136 162.767 51.568 161.199 50.32C159.663 49.04 157.119 48.304 153.567 48.112C152.127 49.456 150.543 50.544 148.815 51.376C147.119 52.208 145.391 52.624 143.631 52.624C142.383 52.624 141.759 52.32 141.759 51.712C141.759 51.328 142.015 50.896 142.527 50.416C143.071 49.904 143.807 49.424 144.735 48.976C145.695 48.528 146.831 48.16 148.143 47.872C149.455 47.552 150.895 47.392 152.463 47.392H153.039C154.095 46.144 154.943 44.784 155.583 43.312C156.223 41.808 156.543 40.336 156.543 38.896C156.543 37.936 156.367 37.024 156.015 36.16C155.695 35.264 155.151 34.496 154.383 33.856C153.647 33.216 152.671 32.704 151.455 32.32C150.271 31.936 148.831 31.744 147.135 31.744C145.983 31.744 144.383 31.904 142.335 32.224C140.319 32.544 138.127 33.04 135.759 33.712C133.423 34.352 131.039 35.168 128.607 36.16C126.175 37.152 123.967 38.304 121.983 39.616C119.999 40.928 118.383 42.416 117.135 44.08C115.887 45.744 115.263 47.584 115.263 49.6C115.263 49.856 115.215 50.08 115.119 50.272C115.023 50.432 114.927 50.512 114.831 50.512C114.703 50.512 114.607 50.384 114.543 50.128C114.447 49.84 114.399 49.376 114.399 48.736C114.687 46.656 115.535 44.768 116.943 43.072C118.351 41.376 120.095 39.872 122.175 38.56C124.223 37.216 126.479 36.064 128.943 35.104C131.407 34.144 133.839 33.36 136.239 32.752C138.671 32.112 140.927 31.648 143.007 31.36C145.119 31.04 146.847 30.88 148.191 30.88C150.143 30.88 151.791 31.072 153.135 31.456C154.511 31.808 155.631 32.304 156.495 32.944C157.359 33.552 157.983 34.288 158.367 35.152C158.751 36.016 158.943 36.928 158.943 37.888C158.943 39.456 158.511 41.088 157.647 42.784C156.815 44.448 155.679 46 154.239 47.44C156.287 47.536 158.047 47.808 159.519 48.256C160.991 48.672 162.191 49.232 163.119 49.936C164.047 50.608 164.719 51.408 165.135 52.336C165.583 53.232 165.807 54.208 165.807 55.264ZM140.367 67.888C140.367 68.336 140.335 68.656 140.271 68.848C140.207 69.04 140.031 69.136 139.743 69.136C139.103 69.2 138.783 68.56 138.783 67.216C138.751 62.8 138.703 58.768 138.639 55.12C138.607 51.472 138.559 48.32 138.495 45.664C138.463 42.976 138.431 40.848 138.399 39.28C138.367 37.712 138.351 36.816 138.351 36.592C138.351 36.336 138.431 36.16 138.591 36.064C138.751 35.968 138.943 35.888 139.167 35.824C139.423 35.824 139.615 35.904 139.743 36.064C139.903 36.224 139.983 36.416 139.983 36.64C139.983 39.2 139.999 41.84 140.031 44.56C140.063 47.248 140.095 49.936 140.127 52.624C140.191 55.312 140.239 57.952 140.271 60.544C140.335 63.136 140.367 65.584 140.367 67.888ZM184.465 60.208C184.465 59.728 184.385 59.344 184.225 59.056C184.065 58.736 183.809 58.576 183.457 58.576C182.913 58.576 182.497 58.848 182.209 59.392C181.921 59.904 181.793 60.56 181.825 61.36C181.921 63.056 182.225 64.48 182.737 65.632C183.281 64.896 183.697 64.064 183.985 63.136C184.305 62.208 184.465 61.232 184.465 60.208ZM197.425 60.16C197.201 60.64 196.961 61.136 196.705 61.648C196.449 62.128 196.161 62.608 195.841 63.088C194.209 65.52 192.561 67.328 190.897 68.512C189.233 69.696 187.681 70.288 186.241 70.288C184.417 70.288 183.025 69.424 182.065 67.696C180.945 68.816 179.681 69.664 178.273 70.24C176.897 70.816 175.537 71.104 174.193 71.104C173.393 71.104 172.625 70.992 171.889 70.768C171.185 70.544 170.577 70.208 170.065 69.76C169.521 69.28 169.089 68.688 168.769 67.984C168.449 67.248 168.289 66.4 168.289 65.44C168.289 64.288 168.561 63.12 169.105 61.936C169.617 60.72 170.337 59.632 171.265 58.672C172.225 57.68 173.345 56.864 174.625 56.224C175.905 55.584 177.297 55.264 178.801 55.264C180.017 55.264 180.961 55.44 181.633 55.792C182.305 56.112 182.641 56.416 182.641 56.704C182.641 56.832 182.577 56.928 182.449 56.992C182.321 57.056 182.209 57.088 182.113 57.088C182.081 57.056 182.049 57.04 182.017 57.04H181.969C181.585 56.688 181.153 56.416 180.673 56.224C180.193 56 179.489 55.888 178.561 55.888C177.313 55.888 176.177 56.16 175.153 56.704C174.161 57.216 173.313 57.904 172.609 58.768C171.905 59.6 171.361 60.528 170.977 61.552C170.593 62.576 170.401 63.584 170.401 64.576C170.401 66.496 170.849 67.888 171.745 68.752C172.641 69.616 173.761 70.048 175.105 70.048C176.193 70.048 177.329 69.776 178.513 69.232C179.697 68.688 180.753 67.92 181.681 66.928C181.169 65.776 180.913 64.272 180.913 62.416C180.913 61.2 181.137 60.144 181.585 59.248C182.033 58.352 182.673 57.904 183.505 57.904C184.657 57.904 185.233 58.576 185.233 59.92C185.233 61.264 185.041 62.48 184.657 63.568C184.273 64.624 183.761 65.584 183.121 66.448C184.017 68.112 185.265 68.944 186.865 68.944C188.081 68.944 189.377 68.432 190.753 67.408C192.161 66.384 193.537 64.896 194.881 62.944C195.201 62.464 195.489 61.968 195.745 61.456C196.001 60.944 196.257 60.432 196.513 59.92L197.425 60.16ZM204.092 38.704C204.092 36.88 203.788 35.424 203.18 34.336C202.604 33.216 201.628 32.656 200.252 32.656C199.772 32.656 199.324 32.816 198.908 33.136C198.524 33.424 198.188 33.824 197.9 34.336C197.612 34.848 197.388 35.44 197.228 36.112C197.068 36.784 196.988 37.504 196.988 38.272C196.988 40.384 197.004 42.304 197.036 44.032C197.068 45.76 197.1 47.392 197.132 48.928C197.196 50.464 197.26 51.952 197.324 53.392C197.388 54.832 197.452 56.304 197.516 57.808C198.444 56.56 199.308 55.136 200.108 53.536C200.908 51.904 201.596 50.24 202.172 48.544C202.78 46.816 203.244 45.104 203.564 43.408C203.916 41.712 204.092 40.144 204.092 38.704ZM221.468 60.16C221.244 60.64 221.004 61.136 220.748 61.648C220.524 62.16 220.236 62.64 219.884 63.088C218.124 65.584 216.124 67.552 213.884 68.992C211.644 70.4 209.42 71.104 207.212 71.104C205.836 71.104 204.524 70.784 203.276 70.144C202.028 69.536 200.924 68.544 199.964 67.168C199.836 67.008 199.772 66.864 199.772 66.736C199.772 66.448 199.964 66.304 200.348 66.304C200.38 66.304 200.492 66.336 200.684 66.4C200.94 66.4 201.228 66.496 201.548 66.688C201.9 66.848 202.396 66.928 203.036 66.928C204.028 66.928 204.956 66.752 205.82 66.4C206.684 66.048 207.42 65.6 208.028 65.056C208.668 64.48 209.164 63.84 209.516 63.136C209.868 62.4 210.044 61.648 210.044 60.88C210.044 59.92 209.788 59.088 209.276 58.384C208.796 57.68 207.964 57.328 206.78 57.328C205.564 57.328 204.444 57.76 203.42 58.624C202.396 59.456 201.468 60.48 200.636 61.696C199.836 62.88 199.148 64.144 198.572 65.488C197.996 66.8 197.564 67.952 197.276 68.944C197.116 69.488 196.972 69.824 196.844 69.952C196.716 70.08 196.572 70.144 196.412 70.144C196.06 70.144 195.9 69.808 195.932 69.136C195.932 68.848 195.948 68.496 195.98 68.08C196.012 67.664 196.044 67.216 196.076 66.736C196.076 66.256 196.092 65.776 196.124 65.296C196.156 64.784 196.172 64.32 196.172 63.904C196.172 62.464 196.14 60.816 196.076 58.96C196.012 57.072 195.932 55.136 195.836 53.152C195.74 51.136 195.66 49.136 195.596 47.152C195.532 45.168 195.5 43.344 195.5 41.68C195.5 40.368 195.596 39.104 195.788 37.888C195.98 36.64 196.284 35.552 196.7 34.624C197.116 33.664 197.644 32.912 198.284 32.368C198.924 31.792 199.676 31.504 200.54 31.504C201.436 31.504 202.188 31.664 202.796 31.984C203.436 32.272 203.948 32.704 204.332 33.28C204.716 33.824 204.988 34.496 205.148 35.296C205.34 36.064 205.436 36.912 205.436 37.84C205.436 39.44 205.212 41.2 204.764 43.12C204.316 45.008 203.724 46.912 202.988 48.832C202.252 50.752 201.404 52.608 200.444 54.4C199.516 56.16 198.556 57.696 197.564 59.008C197.628 59.968 197.66 60.96 197.66 61.984C197.692 63.008 197.74 64.096 197.804 65.248C198.604 63.52 199.484 62.032 200.444 60.784C200.86 60.24 201.324 59.712 201.836 59.2C202.38 58.656 202.94 58.176 203.516 57.76C204.124 57.344 204.764 57.008 205.436 56.752C206.14 56.496 206.876 56.368 207.644 56.368C208.86 56.368 209.916 56.672 210.812 57.28C211.708 57.888 212.156 58.864 212.156 60.208C212.156 61.488 211.836 62.576 211.196 63.472C210.588 64.368 209.82 65.12 208.892 65.728C207.964 66.304 206.972 66.736 205.916 67.024C204.86 67.312 203.9 67.488 203.036 67.552C202.972 67.552 202.94 67.568 202.94 67.6C202.94 67.664 202.988 67.76 203.084 67.888C203.724 68.624 204.444 69.152 205.244 69.472C206.044 69.792 206.876 69.952 207.74 69.952C208.796 69.952 209.868 69.76 210.956 69.376C212.044 68.96 213.084 68.432 214.076 67.792C215.068 67.12 215.98 66.368 216.812 65.536C217.676 64.672 218.38 63.808 218.924 62.944C219.244 62.464 219.532 61.968 219.788 61.456C220.044 60.944 220.3 60.432 220.556 59.92L221.468 60.16ZM228.235 57.184C228.235 56.32 228.011 55.616 227.563 55.072C227.147 54.496 226.459 54.208 225.499 54.208C224.987 54.208 224.523 54.368 224.107 54.688C223.691 55.008 223.339 55.44 223.051 55.984C222.763 56.496 222.539 57.104 222.379 57.808C222.219 58.512 222.139 59.248 222.139 60.016C222.139 61.232 222.267 62.32 222.523 63.28C222.811 64.208 223.211 65.024 223.723 65.728C224.395 65.184 225.003 64.56 225.547 63.856C226.091 63.152 226.555 62.416 226.939 61.648C227.355 60.88 227.675 60.112 227.899 59.344C228.123 58.576 228.235 57.856 228.235 57.184ZM240.379 60.16C240.155 60.64 239.915 61.136 239.659 61.648C239.435 62.128 239.147 62.608 238.795 63.088C237.227 65.328 235.435 67.024 233.419 68.176C231.435 69.296 229.531 69.856 227.707 69.856C226.683 69.856 225.723 69.68 224.827 69.328C223.963 68.976 223.211 68.448 222.571 67.744C221.931 67.04 221.419 66.16 221.035 65.104C220.651 64.048 220.459 62.8 220.459 61.36C220.459 60.4 220.603 59.44 220.891 58.48C221.179 57.52 221.563 56.656 222.043 55.888C222.555 55.12 223.131 54.496 223.771 54.016C224.443 53.536 225.147 53.296 225.883 53.296C227.067 53.296 227.931 53.648 228.475 54.352C229.019 55.024 229.291 55.888 229.291 56.944C229.291 58.384 228.843 59.952 227.947 61.648C227.083 63.312 225.835 64.864 224.203 66.304C225.419 67.68 226.987 68.368 228.907 68.368C230.347 68.368 231.851 67.936 233.419 67.072C234.987 66.176 236.459 64.8 237.835 62.944C238.187 62.496 238.475 62.016 238.699 61.504C238.955 60.96 239.211 60.432 239.467 59.92L240.379 60.16Z" fill="#FFF9F4"/>
</svg>
