<svg width="958" height="958" viewBox="0 0 958 958" fill="none" xmlns="http://www.w3.org/2000/svg">
<path d="M810.828 478.939C818.069 478.939 823.965 473.064 823.69 465.828C820.395 379.092 784.494 296.591 722.891 234.988C658.191 170.288 570.439 133.939 478.939 133.939C387.44 133.939 299.688 170.288 234.988 234.988C173.384 296.591 137.484 379.092 134.188 465.828C133.913 473.064 139.81 478.939 147.051 478.939C154.292 478.939 160.134 473.064 160.432 465.829C163.712 386.05 196.845 310.215 253.53 253.53C313.312 193.748 394.394 160.162 478.939 160.162C563.484 160.162 644.567 193.748 704.349 253.53C761.034 310.215 794.166 386.05 797.447 465.829C797.745 473.065 803.587 478.939 810.828 478.939Z" fill="#303030"/>
<g filter="url(#filter0_f_14283_2)">
<path d="M286.018 192.921C239.163 224.526 200.789 267.157 174.271 317.068C147.754 366.979 133.904 422.64 133.94 479.158L160.162 479.141C160.129 426.919 172.926 375.489 197.429 329.372C221.931 283.255 257.388 243.863 300.682 214.661L286.018 192.921Z" fill="url(#paint0_linear_14283_2)"/>
</g>
<path d="M293.35 203.791C289.301 197.788 281.135 196.184 275.29 200.458C233.292 231.17 198.736 271.021 174.271 317.068C149.807 363.115 136.124 414.056 134.18 466.049C133.91 473.285 139.81 479.154 147.051 479.149C154.292 479.145 160.131 473.268 160.424 466.033C162.356 418.337 174.98 371.624 197.429 329.372C219.878 287.119 251.522 250.512 289.965 222.215C295.797 217.922 297.399 209.795 293.35 203.791Z" fill="url(#paint1_linear_14283_2)"/>
<defs>
<filter id="filter0_f_14283_2" x="103.94" y="162.921" width="226.742" height="346.236" filterUnits="userSpaceOnUse" color-interpolation-filters="sRGB">
<feFlood flood-opacity="0" result="BackgroundImageFix"/>
<feBlend mode="normal" in="SourceGraphic" in2="BackgroundImageFix" result="shape"/>
<feGaussianBlur stdDeviation="15" result="effect1_foregroundBlur_14283_2"/>
</filter>
<linearGradient id="paint0_linear_14283_2" x1="134.439" y1="469.94" x2="312.939" y2="194.44" gradientUnits="userSpaceOnUse">
<stop stop-color="#425A4B"/>
<stop offset="1" stop-color="#66CF7E"/>
</linearGradient>
<linearGradient id="paint1_linear_14283_2" x1="134.439" y1="469.94" x2="312.939" y2="194.44" gradientUnits="userSpaceOnUse">
<stop stop-color="#405548"/>
<stop offset="1" stop-color="#6ADB83"/>
</linearGradient>
</defs>
</svg>
