<svg width="94" height="15" viewBox="0 0 94 15" fill="none" xmlns="http://www.w3.org/2000/svg">
<path d="M4.16 12.08V7.96003H5.96046e-08V6.52003H4.16V2.40003H5.64V6.52003H9.8V7.96003H5.64V12.08H4.16ZM14.033 14.28L20.353 1.72003H12.653V0.280028H22.153V1.46003L15.793 14.28H14.033ZM23.8741 14.28V13.06L28.9541 8.58003C30.0474 7.62003 30.8074 6.82003 31.2341 6.18003C31.6607 5.54003 31.8741 4.87336 31.8741 4.18003C31.8741 3.38003 31.6007 2.73336 31.0541 2.24003C30.5074 1.74669 29.8407 1.50003 29.0541 1.50003C28.2941 1.50003 27.6207 1.69336 27.0341 2.08003C26.4607 2.4667 25.8807 3.07336 25.2941 3.90003L24.1341 3.06003C24.8141 2.0467 25.5341 1.30003 26.2941 0.820029C27.0541 0.326695 28.0141 0.0800285 29.1741 0.0800285C30.4274 0.0800285 31.4607 0.460028 32.2741 1.22003C33.1007 1.9667 33.5141 2.92003 33.5141 4.08003C33.5141 5.04003 33.2541 5.89336 32.7341 6.64003C32.2141 7.3867 31.2941 8.3467 29.9741 9.52003L26.2341 12.84H33.6541V14.28H23.8741ZM36.4267 14.28V12.18H38.2667V14.28H36.4267ZM50.8184 12.42C49.7251 13.82 48.2984 14.52 46.5384 14.52C44.7784 14.52 43.3518 13.8267 42.2584 12.44C41.1784 11.04 40.6384 9.32003 40.6384 7.28003C40.6384 5.2667 41.1851 3.56003 42.2784 2.16003C43.3851 0.746696 44.8184 0.040029 46.5784 0.040029C48.3384 0.040029 49.7584 0.740029 50.8384 2.14003C51.9184 3.5267 52.4584 5.24003 52.4584 7.28003C52.4584 9.29336 51.9118 11.0067 50.8184 12.42ZM43.4784 11.38C44.2784 12.5134 45.3118 13.08 46.5784 13.08C47.8451 13.08 48.8651 12.52 49.6384 11.4C50.4251 10.2667 50.8184 8.89336 50.8184 7.28003C50.8184 5.69336 50.4184 4.33336 49.6184 3.20003C48.8318 2.05336 47.8051 1.48003 46.5384 1.48003C45.2718 1.48003 44.2451 2.0467 43.4584 3.18003C42.6718 4.30003 42.2784 5.6667 42.2784 7.28003C42.2784 8.8667 42.6784 10.2334 43.4784 11.38ZM65.1153 12.42C64.022 13.82 62.5953 14.52 60.8353 14.52C59.0753 14.52 57.6486 13.8267 56.5553 12.44C55.4753 11.04 54.9353 9.32003 54.9353 7.28003C54.9353 5.2667 55.482 3.56003 56.5753 2.16003C57.682 0.746696 59.1153 0.040029 60.8753 0.040029C62.6353 0.040029 64.0553 0.740029 65.1353 2.14003C66.2153 3.5267 66.7553 5.24003 66.7553 7.28003C66.7553 9.29336 66.2086 11.0067 65.1153 12.42ZM57.7753 11.38C58.5753 12.5134 59.6086 13.08 60.8753 13.08C62.142 13.08 63.162 12.52 63.9353 11.4C64.722 10.2667 65.1153 8.89336 65.1153 7.28003C65.1153 5.69336 64.7153 4.33336 63.9153 3.20003C63.1286 2.05336 62.102 1.48003 60.8353 1.48003C59.5686 1.48003 58.542 2.0467 57.7553 3.18003C56.9686 4.30003 56.5753 5.6667 56.5753 7.28003C56.5753 8.8667 56.9753 10.2334 57.7753 11.38ZM79.4122 12.42C78.3189 13.82 76.8922 14.52 75.1322 14.52C73.3722 14.52 71.9455 13.8267 70.8522 12.44C69.7722 11.04 69.2322 9.32003 69.2322 7.28003C69.2322 5.2667 69.7789 3.56003 70.8722 2.16003C71.9789 0.746696 73.4122 0.040029 75.1722 0.040029C76.9322 0.040029 78.3522 0.740029 79.4322 2.14003C80.5122 3.5267 81.0522 5.24003 81.0522 7.28003C81.0522 9.29336 80.5055 11.0067 79.4122 12.42ZM72.0722 11.38C72.8722 12.5134 73.9055 13.08 75.1722 13.08C76.4389 13.08 77.4589 12.52 78.2322 11.4C79.0189 10.2667 79.4122 8.89336 79.4122 7.28003C79.4122 5.69336 79.0122 4.33336 78.2122 3.20003C77.4255 2.05336 76.3989 1.48003 75.1322 1.48003C73.8655 1.48003 72.8389 2.0467 72.0522 3.18003C71.2655 4.30003 70.8722 5.6667 70.8722 7.28003C70.8722 8.8667 71.2722 10.2334 72.0722 11.38ZM84.2291 14.28V11.56H82.4891V10.26H84.2291V8.48003H82.4891V6.96003H84.2291V2.83718e-05H87.9891C89.7357 2.83718e-05 91.0291 0.353362 91.8691 1.06003C92.7224 1.7667 93.1491 2.79336 93.1491 4.14003C93.1491 5.50003 92.6891 6.5667 91.7691 7.34003C90.8491 8.10003 89.4957 8.48003 87.7091 8.48003H86.0291V10.26H89.3291V11.56H86.0291V14.28H84.2291ZM87.4491 6.96003C88.6624 6.96003 89.6024 6.76003 90.2691 6.36003C90.9491 5.96003 91.2891 5.24003 91.2891 4.20003C91.2891 3.29336 91.0091 2.62003 90.4491 2.18003C89.8891 1.74003 89.0157 1.52003 87.8291 1.52003H86.0291V6.96003H87.4491Z" fill="white"/>
</svg>
